<mxfile host="app.diagrams.net" modified="2023-10-16T17:42:24.663Z" agent="Mozilla/5.0 (Windows NT 10.0; Win64; x64) AppleWebKit/537.36 (KHTML, like Gecko) Chrome/118.0.0.0 Safari/537.36" etag="SGw-9U2wlgR3w7mv5Ox-" version="22.0.4" type="device">
  <diagram name="PÃ¡gina-1" id="-awOGB02zNUtzZhkq__5">
    <mxGraphModel dx="1144" dy="1735" grid="1" gridSize="10" guides="1" tooltips="1" connect="1" arrows="1" fold="1" page="1" pageScale="1" pageWidth="827" pageHeight="1169" math="0" shadow="0">
      <root>
        <mxCell id="0" />
        <mxCell id="1" parent="0" />
        <mxCell id="Ct-DKrV5HUXi5heO45Cc-8" value="Ingrediente" style="swimlane;fontStyle=0;childLayout=stackLayout;horizontal=1;startSize=26;horizontalStack=0;resizeParent=1;resizeParentMax=0;resizeLast=0;collapsible=1;marginBottom=0;align=center;fontSize=14;" parent="1" vertex="1">
          <mxGeometry x="50" y="-845" width="160" height="116" as="geometry" />
        </mxCell>
        <mxCell id="Ct-DKrV5HUXi5heO45Cc-9" value="&lt;u&gt;Nombre&lt;/u&gt;" style="text;strokeColor=none;fillColor=none;spacingLeft=4;spacingRight=4;overflow=hidden;rotatable=0;points=[[0,0.5],[1,0.5]];portConstraint=eastwest;fontSize=12;whiteSpace=wrap;html=1;" parent="Ct-DKrV5HUXi5heO45Cc-8" vertex="1">
          <mxGeometry y="26" width="160" height="30" as="geometry" />
        </mxCell>
        <mxCell id="Ct-DKrV5HUXi5heO45Cc-10" value="Cantidad" style="text;strokeColor=none;fillColor=none;spacingLeft=4;spacingRight=4;overflow=hidden;rotatable=0;points=[[0,0.5],[1,0.5]];portConstraint=eastwest;fontSize=12;whiteSpace=wrap;html=1;" parent="Ct-DKrV5HUXi5heO45Cc-8" vertex="1">
          <mxGeometry y="56" width="160" height="30" as="geometry" />
        </mxCell>
        <mxCell id="tWWoj-3zP3Y7B2qUnDCA-2" value="Unidad" style="text;strokeColor=none;fillColor=none;spacingLeft=4;spacingRight=4;overflow=hidden;rotatable=0;points=[[0,0.5],[1,0.5]];portConstraint=eastwest;fontSize=12;whiteSpace=wrap;html=1;" vertex="1" parent="Ct-DKrV5HUXi5heO45Cc-8">
          <mxGeometry y="86" width="160" height="30" as="geometry" />
        </mxCell>
        <mxCell id="Ct-DKrV5HUXi5heO45Cc-12" value="Paso" style="swimlane;fontStyle=0;childLayout=stackLayout;horizontal=1;startSize=26;horizontalStack=0;resizeParent=1;resizeParentMax=0;resizeLast=0;collapsible=1;marginBottom=0;align=center;fontSize=14;" parent="1" vertex="1">
          <mxGeometry x="860" y="-845" width="160" height="116" as="geometry" />
        </mxCell>
        <mxCell id="Ct-DKrV5HUXi5heO45Cc-13" value="&lt;u&gt;id&lt;/u&gt;" style="text;strokeColor=none;fillColor=none;spacingLeft=4;spacingRight=4;overflow=hidden;rotatable=0;points=[[0,0.5],[1,0.5]];portConstraint=eastwest;fontSize=12;whiteSpace=wrap;html=1;" parent="Ct-DKrV5HUXi5heO45Cc-12" vertex="1">
          <mxGeometry y="26" width="160" height="30" as="geometry" />
        </mxCell>
        <mxCell id="Ct-DKrV5HUXi5heO45Cc-14" value="num_paso" style="text;strokeColor=none;fillColor=none;spacingLeft=4;spacingRight=4;overflow=hidden;rotatable=0;points=[[0,0.5],[1,0.5]];portConstraint=eastwest;fontSize=12;whiteSpace=wrap;html=1;" parent="Ct-DKrV5HUXi5heO45Cc-12" vertex="1">
          <mxGeometry y="56" width="160" height="30" as="geometry" />
        </mxCell>
        <mxCell id="Ct-DKrV5HUXi5heO45Cc-15" value="descripcion" style="text;strokeColor=none;fillColor=none;spacingLeft=4;spacingRight=4;overflow=hidden;rotatable=0;points=[[0,0.5],[1,0.5]];portConstraint=eastwest;fontSize=12;whiteSpace=wrap;html=1;" parent="Ct-DKrV5HUXi5heO45Cc-12" vertex="1">
          <mxGeometry y="86" width="160" height="30" as="geometry" />
        </mxCell>
        <mxCell id="Ct-DKrV5HUXi5heO45Cc-39" style="edgeStyle=orthogonalEdgeStyle;rounded=0;orthogonalLoop=1;jettySize=auto;html=1;startArrow=ERzeroToMany;startFill=0;endArrow=none;endFill=0;" parent="1" source="Ct-DKrV5HUXi5heO45Cc-16" target="Ct-DKrV5HUXi5heO45Cc-33" edge="1">
          <mxGeometry relative="1" as="geometry" />
        </mxCell>
        <mxCell id="Ct-DKrV5HUXi5heO45Cc-16" value="Receta" style="swimlane;fontStyle=0;childLayout=stackLayout;horizontal=1;startSize=26;horizontalStack=0;resizeParent=1;resizeParentMax=0;resizeLast=0;collapsible=1;marginBottom=0;align=center;fontSize=14;" parent="1" vertex="1">
          <mxGeometry x="450" y="-875" width="160" height="176" as="geometry" />
        </mxCell>
        <mxCell id="Ct-DKrV5HUXi5heO45Cc-17" value="&lt;u&gt;id&lt;/u&gt;" style="text;strokeColor=none;fillColor=none;spacingLeft=4;spacingRight=4;overflow=hidden;rotatable=0;points=[[0,0.5],[1,0.5]];portConstraint=eastwest;fontSize=12;whiteSpace=wrap;html=1;" parent="Ct-DKrV5HUXi5heO45Cc-16" vertex="1">
          <mxGeometry y="26" width="160" height="30" as="geometry" />
        </mxCell>
        <mxCell id="Ct-DKrV5HUXi5heO45Cc-18" value="Nombre_plato" style="text;strokeColor=none;fillColor=none;spacingLeft=4;spacingRight=4;overflow=hidden;rotatable=0;points=[[0,0.5],[1,0.5]];portConstraint=eastwest;fontSize=12;whiteSpace=wrap;html=1;" parent="Ct-DKrV5HUXi5heO45Cc-16" vertex="1">
          <mxGeometry y="56" width="160" height="30" as="geometry" />
        </mxCell>
        <mxCell id="Ct-DKrV5HUXi5heO45Cc-19" value="dificultad" style="text;strokeColor=none;fillColor=none;spacingLeft=4;spacingRight=4;overflow=hidden;rotatable=0;points=[[0,0.5],[1,0.5]];portConstraint=eastwest;fontSize=12;whiteSpace=wrap;html=1;" parent="Ct-DKrV5HUXi5heO45Cc-16" vertex="1">
          <mxGeometry y="86" width="160" height="30" as="geometry" />
        </mxCell>
        <mxCell id="Ct-DKrV5HUXi5heO45Cc-20" value="duracion_media" style="text;strokeColor=none;fillColor=none;spacingLeft=4;spacingRight=4;overflow=hidden;rotatable=0;points=[[0,0.5],[1,0.5]];portConstraint=eastwest;fontSize=12;whiteSpace=wrap;html=1;" parent="Ct-DKrV5HUXi5heO45Cc-16" vertex="1">
          <mxGeometry y="116" width="160" height="30" as="geometry" />
        </mxCell>
        <mxCell id="Ct-DKrV5HUXi5heO45Cc-21" value="cantidad_personas" style="text;strokeColor=none;fillColor=none;spacingLeft=4;spacingRight=4;overflow=hidden;rotatable=0;points=[[0,0.5],[1,0.5]];portConstraint=eastwest;fontSize=12;whiteSpace=wrap;html=1;" parent="Ct-DKrV5HUXi5heO45Cc-16" vertex="1">
          <mxGeometry y="146" width="160" height="30" as="geometry" />
        </mxCell>
        <mxCell id="Ct-DKrV5HUXi5heO45Cc-22" value="Etiqueta" style="swimlane;fontStyle=0;childLayout=stackLayout;horizontal=1;startSize=26;horizontalStack=0;resizeParent=1;resizeParentMax=0;resizeLast=0;collapsible=1;marginBottom=0;align=center;fontSize=14;" parent="1" vertex="1">
          <mxGeometry x="450" y="-1090" width="160" height="56" as="geometry" />
        </mxCell>
        <mxCell id="Ct-DKrV5HUXi5heO45Cc-23" value="&lt;u&gt;Nombre&lt;/u&gt;" style="text;strokeColor=none;fillColor=none;spacingLeft=4;spacingRight=4;overflow=hidden;rotatable=0;points=[[0,0.5],[1,0.5]];portConstraint=eastwest;fontSize=12;whiteSpace=wrap;html=1;" parent="Ct-DKrV5HUXi5heO45Cc-22" vertex="1">
          <mxGeometry y="26" width="160" height="30" as="geometry" />
        </mxCell>
        <mxCell id="Ct-DKrV5HUXi5heO45Cc-26" value="Utensilio" style="swimlane;fontStyle=0;childLayout=stackLayout;horizontal=1;startSize=26;horizontalStack=0;resizeParent=1;resizeParentMax=0;resizeLast=0;collapsible=1;marginBottom=0;align=center;fontSize=14;" parent="1" vertex="1">
          <mxGeometry x="450" y="-510" width="160" height="86" as="geometry" />
        </mxCell>
        <mxCell id="Ct-DKrV5HUXi5heO45Cc-27" value="&lt;u&gt;Nombre&lt;/u&gt;" style="text;strokeColor=none;fillColor=none;spacingLeft=4;spacingRight=4;overflow=hidden;rotatable=0;points=[[0,0.5],[1,0.5]];portConstraint=eastwest;fontSize=12;whiteSpace=wrap;html=1;" parent="Ct-DKrV5HUXi5heO45Cc-26" vertex="1">
          <mxGeometry y="26" width="160" height="30" as="geometry" />
        </mxCell>
        <mxCell id="Ct-DKrV5HUXi5heO45Cc-34" value="Tipo" style="text;strokeColor=none;fillColor=none;spacingLeft=4;spacingRight=4;overflow=hidden;rotatable=0;points=[[0,0.5],[1,0.5]];portConstraint=eastwest;fontSize=12;whiteSpace=wrap;html=1;" parent="Ct-DKrV5HUXi5heO45Cc-26" vertex="1">
          <mxGeometry y="56" width="160" height="30" as="geometry" />
        </mxCell>
        <mxCell id="Ct-DKrV5HUXi5heO45Cc-41" style="edgeStyle=orthogonalEdgeStyle;rounded=0;orthogonalLoop=1;jettySize=auto;html=1;endArrow=ERoneToMany;endFill=0;" parent="1" source="Ct-DKrV5HUXi5heO45Cc-30" target="Ct-DKrV5HUXi5heO45Cc-16" edge="1">
          <mxGeometry relative="1" as="geometry" />
        </mxCell>
        <mxCell id="Ct-DKrV5HUXi5heO45Cc-42" style="edgeStyle=orthogonalEdgeStyle;rounded=0;orthogonalLoop=1;jettySize=auto;html=1;endArrow=ERzeroToMany;endFill=0;" parent="1" source="Ct-DKrV5HUXi5heO45Cc-30" target="Ct-DKrV5HUXi5heO45Cc-26" edge="1">
          <mxGeometry relative="1" as="geometry" />
        </mxCell>
        <mxCell id="Ct-DKrV5HUXi5heO45Cc-30" value="Utiliza" style="shape=rhombus;perimeter=rhombusPerimeter;whiteSpace=wrap;html=1;align=center;" parent="1" vertex="1">
          <mxGeometry x="470" y="-630" width="120" height="60" as="geometry" />
        </mxCell>
        <mxCell id="Ct-DKrV5HUXi5heO45Cc-37" style="edgeStyle=orthogonalEdgeStyle;rounded=0;orthogonalLoop=1;jettySize=auto;html=1;exitX=0;exitY=0.5;exitDx=0;exitDy=0;endArrow=ERmandOne;endFill=0;" parent="1" source="Ct-DKrV5HUXi5heO45Cc-31" target="Ct-DKrV5HUXi5heO45Cc-16" edge="1">
          <mxGeometry relative="1" as="geometry" />
        </mxCell>
        <mxCell id="Ct-DKrV5HUXi5heO45Cc-38" style="edgeStyle=orthogonalEdgeStyle;rounded=0;orthogonalLoop=1;jettySize=auto;html=1;endArrow=ERoneToMany;endFill=0;" parent="1" source="Ct-DKrV5HUXi5heO45Cc-31" target="Ct-DKrV5HUXi5heO45Cc-12" edge="1">
          <mxGeometry relative="1" as="geometry" />
        </mxCell>
        <mxCell id="Ct-DKrV5HUXi5heO45Cc-31" value="Describe" style="shape=rhombus;perimeter=rhombusPerimeter;whiteSpace=wrap;html=1;align=center;" parent="1" vertex="1">
          <mxGeometry x="677" y="-817" width="120" height="60" as="geometry" />
        </mxCell>
        <mxCell id="Ct-DKrV5HUXi5heO45Cc-35" style="edgeStyle=orthogonalEdgeStyle;rounded=0;orthogonalLoop=1;jettySize=auto;html=1;exitX=1;exitY=0.5;exitDx=0;exitDy=0;endArrow=ERoneToMany;endFill=0;" parent="1" source="Ct-DKrV5HUXi5heO45Cc-32" target="Ct-DKrV5HUXi5heO45Cc-16" edge="1">
          <mxGeometry relative="1" as="geometry" />
        </mxCell>
        <mxCell id="Ct-DKrV5HUXi5heO45Cc-36" style="edgeStyle=orthogonalEdgeStyle;rounded=0;orthogonalLoop=1;jettySize=auto;html=1;exitX=0;exitY=0.5;exitDx=0;exitDy=0;endArrow=ERoneToMany;endFill=0;" parent="1" source="Ct-DKrV5HUXi5heO45Cc-32" target="Ct-DKrV5HUXi5heO45Cc-8" edge="1">
          <mxGeometry relative="1" as="geometry" />
        </mxCell>
        <mxCell id="Ct-DKrV5HUXi5heO45Cc-32" value="Requiere" style="shape=rhombus;perimeter=rhombusPerimeter;whiteSpace=wrap;html=1;align=center;" parent="1" vertex="1">
          <mxGeometry x="280" y="-817" width="120" height="60" as="geometry" />
        </mxCell>
        <mxCell id="Ct-DKrV5HUXi5heO45Cc-40" style="edgeStyle=orthogonalEdgeStyle;rounded=0;orthogonalLoop=1;jettySize=auto;html=1;endArrow=ERzeroToMany;endFill=0;" parent="1" source="Ct-DKrV5HUXi5heO45Cc-33" target="Ct-DKrV5HUXi5heO45Cc-22" edge="1">
          <mxGeometry relative="1" as="geometry" />
        </mxCell>
        <mxCell id="Ct-DKrV5HUXi5heO45Cc-33" value="Tiene" style="shape=rhombus;perimeter=rhombusPerimeter;whiteSpace=wrap;html=1;align=center;" parent="1" vertex="1">
          <mxGeometry x="470" y="-990" width="120" height="60" as="geometry" />
        </mxCell>
        <mxCell id="tWWoj-3zP3Y7B2qUnDCA-1" value="Etiqueta(nombre_pk)&lt;br&gt;Receta(id_pk, nombre_plato, dificultad, duracion_media, cantidad_personas)&lt;br&gt;Paso(id_pk, num_paso, descripcion, id_receta_fk)&lt;br&gt;Ingrediente(nombre_pk, cantidad, unidad)&lt;br&gt;Utensilio(nombre_pk, tipo)&lt;br&gt;Etiqueta_Receta(nombre_pk_fk, id_receta_pk_fk)&lt;br&gt;ingrediente_receta(id_receta_pk_fk, nombre_ingrediente_pk_fk)&lt;br&gt;Receta_Utensilio(id_receta:pk_fk, nombre_pk_fk)&lt;br&gt;" style="text;html=1;strokeColor=none;fillColor=none;align=left;verticalAlign=middle;whiteSpace=wrap;rounded=0;" vertex="1" parent="1">
          <mxGeometry x="620" y="-1034" width="730" height="170" as="geometry" />
        </mxCell>
      </root>
    </mxGraphModel>
  </diagram>
</mxfile>
